<svg xmlns="http://www.w3.org/2000/svg" viewBox="-3 -3 847 601"><g id="deeditor_bgCarrier" stroke-width="0">
    <rect id="dee_c_e" x="-3" y="-3" width="847" height="601" rx="0" fill="#e3dcdc" strokewidth="0"/>
  </g><g id="Layer_25" data-name="Layer 25"><polyline points="645.51 514.58 645.51 543.38 482.41 543.38 524.71 340.28 578.71 340.28 645.51 340.28 645.51 507.58" fill="#fff"/><path d="M645.51,544.38H482.41a.91.91,0,0,1-.8-.4.78.78,0,0,1-.2-.8L523.61,340a1,1,0,0,1,1-.8h120.9a.94.94,0,0,1,1,1v167.4a1,1,0,0,1-2,0V341.28h-119l-41.8,201.2h160.8v-27.9a1,1,0,0,1,2,0v28.8A.94.94,0,0,1,645.51,544.38Z" fill="#181716"/><rect x="281.81" y="475.68" width="224.8" height="67.7" fill="#fff"/><path d="M506.61,544.38H281.81a.94.94,0,0,1-1-1v-67.7a.94.94,0,0,1,1-1h224.8a.94.94,0,0,1,1,1v67.7A1,1,0,0,1,506.61,544.38Zm-223.8-2h222.8v-65.7H282.81Z" fill="#181716"/><path d="M281.81,476.68h-11.2a1,1,0,0,1,0-2h11.2a1,1,0,0,1,0,2Z" fill="#181716"/><rect x="317.91" y="407.98" width="224.8" height="67.7" fill="#fff"/><path d="M542.71,476.68H317.91a.94.94,0,0,1-1-1V408a.94.94,0,0,1,1-1h224.8a.94.94,0,0,1,1,1v67.7A1,1,0,0,1,542.71,476.68Zm-223.8-2h222.8V409H318.91Z" fill="#181716"/><path d="M317.91,409h-11.2a1,1,0,0,1,0-2h11.2a.94.94,0,0,1,1,1A1,1,0,0,1,317.91,409Z" fill="#181716"/><polyline points="419.41 340.28 353.91 340.28 353.91 407.98 578.71 407.98 578.71 340.28 500.51 340.28" fill="#fff"/><path d="M578.71,409H353.91a.94.94,0,0,1-1-1v-67.7a.94.94,0,0,1,1-1h65.5a1,1,0,1,1,0,2h-64.5V407h222.8v-65.7h-77.3a1,1,0,0,1,0-2h78.3a.94.94,0,0,1,1,1V408A.94.94,0,0,1,578.71,409Z" fill="#181716"/><path d="M353.91,341.28h-11.2a1,1,0,0,1,0-2h11.2a1,1,0,1,1,0,2Z" fill="#181716"/><path d="M596.29,491.78c1-3.9,8.4-23.6,33.6-24.3,1.4,5.6-7.5,16.5-19.7,20.1-13.9,4.1-15.2,12.8-15.2,12.8A54.82,54.82,0,0,1,596.29,491.78Z" fill="#fc66a7"/><polygon points="612.39 542.77 577.59 542.77 569.69 500.38 620.19 500.38 612.39 542.77" fill="#fc66a7"/><path d="M621.19,515.78h-52.5a1,1,0,0,1,0-2h52.5a.94.94,0,0,1,1,1A1,1,0,0,1,621.19,515.78Z" fill="#181716"/><path d="M578.19,471.88a.6.6,0,0,1-.4-.1,23.61,23.61,0,0,0-10.1-1.5,1,1,0,0,1-.2-2,24.76,24.76,0,0,1,11,1.7.92.92,0,0,1,.5,1.3A.84.84,0,0,1,578.19,471.88Z" fill="#181716"/><path d="M559.49,461.08a.91.91,0,0,1-.9-1,23.39,23.39,0,0,1,.6-3.9,1,1,0,0,1,1.9.5,21.84,21.84,0,0,0-.6,3.7A1,1,0,0,1,559.49,461.08Z" fill="#181716"/><path d="M578.39,451.38a.74.74,0,0,1-.3-.1,24.21,24.21,0,0,0-8.6-3.7,1,1,0,0,1,.5-1.9,26.74,26.74,0,0,1,9.4,4.1.93.93,0,0,1,.3,1.3A1,1,0,0,1,578.39,451.38Z" fill="#181716"/><circle cx="597.19" cy="473.78" r="5" fill="#181716"/><polygon points="496.29 340.28 488.09 297.18 439.99 297.18 432.19 340.28 496.29 340.28" fill="#fc66a7"/><path d="M496.29,341.28H432.19a.94.94,0,0,1-1-1l7.8-43.1a1,1,0,0,1,1-.8h48.1a1,1,0,0,1,1,.8l8.1,43.1a.94.94,0,0,1-1,1Zm-62.8-2h61.8l-7.8-41.1h-46.2Z" fill="#181716"/><polygon points="461.29 297.18 456.99 269.18 454.99 256.88 458.49 256.88 461.79 273.88 466.69 297.18 461.29 297.18" fill="#fc66a7"/><path d="M466.69,298.18h-5.4a.91.91,0,0,1-.9-.9L461,274h-4.5l-3.3-17.1h3.5l2,13.3,4.3,28.08A.94.94,0,0,1,466.69,298.18Z" fill="#181716"/><path d="M275.59,340.28h-11.8l19.3-54.2a1,1,0,0,1,1.8-.1l24.7,54.3h-12.2l-17.9-40.6Z" fill="#fc66a7"/><path d="M296.59,341.28h-12.2a1,1,0,0,1-.9-1.5l17.9-40.6,8-18a1,1,0,0,1,.9-.5h4.8a1,1,0,0,1,.9.5l7.4,15.9a1,1,0,0,1-1.7,1l-7-15h-4.1l-18.1,40.7A1,1,0,0,1,296.59,341.28Z" fill="#181716"/><polygon points="265.59 340.28 254.99 340.28 279.69 282.78 304.39 340.28 295.89 340.28 283.19 311.78 265.59 340.28" fill="#fff"/><path d="M265.59,341.28H254.99a1,1,0,0,1-1-1l24.7-57.5a1,1,0,0,1,1.8,0l24.7,57.5a1,1,0,0,1-.9,1.4h-8.5a1,1,0,0,1-.9-.5l-12.7-28.5-17.6,29A1,1,0,0,1,265.59,341.28Z" fill="#181716"/><rect x="210.29" y="334.58" width="14.2" height="201.8" fill="#fc66a7"/><path d="M224.49,537.38h-14.2a1,1,0,0,1-1-1V334.58a.94.94,0,0,1,1-1h14.2a1,1,0,0,1,1,1v201.8A.94.94,0,0,1,224.49,537.38Zm-13.2-2h12.2V335.58h-12.2Z" fill="#181716"/><path d="M224.49,334.58h-14.2a1,1,0,0,1-1-1V313a.94.94,0,0,1,1-1h14.2a.94.94,0,0,1,1,1v20.58A1,1,0,0,1,224.49,334.58Zm-13.2-2h12.2V314h-12.2Z" fill="#181716"/><rect x="245.39" y="350.28" width="14.2" height="186.1" fill="#fc66a7"/><path d="M259.59,537.38h-14.2a.94.94,0,0,1-1-1v-186.1a1,1,0,0,1,1-1h14.2a1,1,0,0,1,1,1v186.1A.94.94,0,0,1,259.59,537.38Zm-13.2-2h12.2V350.28h-12.2Z" fill="#181716"/><path d="M259.59,350.28h-14.2a1,1,0,0,1-1-1v-24.5a1,1,0,0,1,1-1h14.2a.94.94,0,0,1,1,1v24.5A1,1,0,0,1,259.59,350.28Zm-13.2-2h12.2v-22.5h-12.2Z" fill="#181716"/><rect x="140.79" y="360.78" width="14.2" height="175.6" fill="#fc66a7"/><path d="M154.99,537.38h-14.2a1,1,0,0,1-1-1V360.78a.94.94,0,0,1,1-1h14.2a.94.94,0,0,1,1,1v175.6A1,1,0,0,1,154.99,537.38Zm-13.2-2h12.2V361.78h-12.2Z" fill="#181716"/><path d="M154.99,360.78h-14.2a1,1,0,0,1-1-1v-33.4a1,1,0,0,1,1-1h14.2a1,1,0,0,1,1,1v33.4A.94.94,0,0,1,154.99,360.78Zm-13.2-2h12.2v-31.4h-12.2Z" fill="#181716"/><rect x="175.89" y="323.38" width="14.2" height="213" fill="#fc66a7"/><path d="M190.09,537.38h-14.2a.94.94,0,0,1-1-1v-213a1,1,0,0,1,1-1h14.2a1,1,0,0,1,1,1v213A.94.94,0,0,1,190.09,537.38Zm-13.2-2h12.2V324.38h-12.2Z" fill="#181716"/><path d="M190.09,323.38h-14.2a1,1,0,0,1-1-1V302.48a1,1,0,0,1,1-1h14.2a.94.94,0,0,1,1,1v19.9A1,1,0,0,1,190.09,323.38Zm-13.2-2h12.2v-17.9h-12.2Z" fill="#181716"/></g></svg>
