<svg xmlns="http://www.w3.org/2000/svg" viewBox="200 100 450 350"><g id="Layer_12" data-name="Layer 12"><polygon points="233.87 288.45 233.42 297.33 240.65 303.29 231.76 305.76 228.43 314.44 223.31 306.61 213.85 306.04 219.88 298.93 217.61 289.99 226.53 293.17 233.87 288.45" fill="#e3dcdc"/><polygon points="596.23 123.99 592.5 136.01 580.37 140.03 590.45 147.28 590.64 159.83 600.87 152.39 612.96 156.34 609.1 144.43 616.22 134.02 603.28 134.14 596.23 123.99" fill="#e3dcdc"/><polygon points="364.55 104.09 384.05 137.62 385.35 139.11 392.56 145.15 407.61 136.4 406 127.19 405.38 125.35 385.9 91.72 364.55 104.09" fill="#e3dcdc"/><circle cx="538.79" cy="428.12" r="25.57" fill="#e3dcdc"/><path d="M299.76,285.61s7.77-12.09,28.74-29.38c6.83-5.13,7.69-6.87,29.76-17.37,5.17-2.05,28.42-7.57,33-7.62,3.64-2,45.28-23.1,45.28-23.1s25.68-13.28,28.75-14.45c.89,2,10.52,22.48,10.52,22.48s-31.93,15.2-36.68,17.63-21,10.42-30.2,17.08c-3.24,2.44-9,6.38-10.3,8.23-.4,1.93-1.36,9.9-5.45,14l22.69.52-2.4,25.92-33.92-2.26-1.95,3.52-32.92-1.24Z" fill="#e3dcdc"/><path d="M395.52,270.46c53.28-31.9,98.4-41.72,98.4-41.72L509.75,249l24.33,31.22S502.66,343,434.92,395.82c-26,20.26-47.59,32.69-64.41,40.26-29.2,13.25-44.39,12.09-44.39,12.09h0l-38.87-49.9-2.87-3.63L280,389s2.63-15,22.59-39.95c3-3.81,6.5-7.92,10.43-12.24Z" fill="#e3dcdc"/><polygon points="548.79 227.32 493.92 228.74 513.96 254.42 533.98 280.2 548.79 227.32" fill="#fefefe"/><polygon points="297.29 464.01 257.63 413.05 280.02 388.99 326.12 448.17 297.29 464.01" fill="#fefefe"/><path d="M302.61,349h0l-40.9-9.37-19.64,15.25L280,389h0S282.65,374,302.61,349Z" fill="#fefefe"/><path d="M370.39,436.16h0c-29.08,13.17-44.27,12-44.27,12h0l23.74,45.11L369.49,478Z" fill="#fefefe"/><path d="M325.92,449.13a1,1,0,0,1-.78-1.07.93.93,0,0,1,1.09-.88c.19,0,15.34.9,43.86-12,20-9,41.54-22.57,64.2-40.21,66.77-52,98.54-114.62,98.88-115.25a1,1,0,0,1,1.73.87c-.33.63-32.29,63.63-99.42,115.94C412.7,414.26,391,427.87,370.83,437c-29.08,13.17-44.21,12.22-44.81,12.2Z" fill="#181716"/><path d="M279.82,390a1,1,0,0,1-.77-1.17c.12-.58,32.09-61.63,99.54-113.78,36.14-28.24,65.29-45.09,83.82-52.08a1,1,0,0,1,.92,1.71c-18.15,6.92-47.09,23.62-82.9,51.52-66.65,51.49-98.8,111.39-98.93,112a1,1,0,0,1-1.68.8Z" fill="#181716"/></g></svg>
