<svg xmlns="http://www.w3.org/2000/svg" viewBox="-3 -3 847 601"><g id="deeditor_bgCarrier" stroke-width="0">
    <rect id="dee_c_e" x="-3" y="-3" width="847" height="601" rx="0" fill="#e3dcdc" strokewidth="0"/>
  </g><g id="Layer_21" data-name="Layer 21"><path d="M622,240.84c-4.17,1.4-10.93.38-10.93.38l-.43-5.72-.4.08a11.55,11.55,0,0,1-14-10.18c0-3.3-.46-7.13-2.66-9.23-1.15-1.16-7.72-2.07-7.14-5.75s7.68-3.74,7.68-3.74l1.55-3.13,36.91.65-6,35.75Z" fill="#ffffff"/><path d="M586.08,330.84s6.83-42.92,7.68-48.09l-4.4-21.33L594.1,250c2-4.91,5.58-9.85,11.91-10.35l4.82-.37,36.51,2.83s6.4,2.2,8.74,7.72c1.35,3.27,6.29,19.42,10.1,32a16.31,16.31,0,0,1-9.35,19.79l.3,2.21s3.09,21.37,3.14,26.78Z" fill="#ffffff"/><path d="M553.31,230l18.51-4.13s-.69-12.95-13-11.72C544.67,215.66,553.31,230,553.31,230Z" fill="#ffffff"/><path d="M586,331.84h-.1a1.18,1.18,0,0,1-.85-1.14c.13-.7,11.09-69.36,11.94-74.52a1,1,0,1,1,2,.29c-.85,5.17-11.81,73.83-11.94,74.52A1,1,0,0,1,586,331.84Z" fill="#000000"/><path d="M549.86,218.2s-1.29-.26-2.18,1.7-1.81,8.63.34,9.63,2.92-2.46,3.27-3.45,1.41-6.44,1.41-6.44S550.77,218,549.86,218.2Z" fill="#ffffff"/><path d="M548.76,230.77a5.55,5.55,0,0,1-1.08-.26c-3.23-1.55-1.57-9.28-.89-10.95.9-2,2.22-2.4,3-2.36,1.31-.14,2.94,1.24,3.62,1.77a1.07,1.07,0,0,1,.35.92c-.12.6-1.16,5.55-1.51,6.54l-.11.29c-.35,1.09-.95,3.16-2.38,3.79A1.51,1.51,0,0,1,548.76,230.77Zm1-11.57c-.2,0-.61.27-1.05,1.15-.91,2.16-1.37,7.74-.1,8.3.3.12.4.12.5,0,.62-.27,1.1-2,1.33-2.54l.11-.4c.23-.59.87-3.56,1.28-5.74a5.47,5.47,0,0,0-1.66-1A.5.5,0,0,1,549.71,219.2Z" fill="#000000"/><path d="M553.42,212.77s-2.85-1.14-4.29-.21-.73,4.77-.3,6.2,2.16,5.2,3.9,4.39S555.86,214.08,553.42,212.77Z" fill="#ffffff"/><path d="M552.08,224.22a2.5,2.5,0,0,1-.8-.14c-2.06-.9-3.37-4.87-3.47-5s-1.82-5.79.75-7.27c2-1.21,4.9,0,5.2.14h.1c1.17.65,1.8,2.18,1.78,4.59,0,2.6-.91,6.66-2.55,7.48A3.6,3.6,0,0,1,552.08,224.22Zm-1.28-11a2.15,2.15,0,0,0-1.22.25c-.72.36-.44,3.08.17,5,.43,1.32,1.53,3.48,2.32,3.81h.1c.52-.38,1.67-3.53,1.5-6.34,0-1.4-.41-2-.7-2.23A6.53,6.53,0,0,0,550.8,213.24Z" fill="#000000"/><path d="M559.62,210.86a6.56,6.56,0,0,0-3.08-2.55c-1.88-.59-3.49,3.94-3.56,7.34s.41,6.33,2.71,6.23,3-2.56,3.38-3.74S559.62,210.86,559.62,210.86Z" fill="#ffffff"/><path d="M561.22,221.24c-2.39,1-4.9-.65-5.19-3.75s1.3-6.24,3.68-7.24,4.9.65,5.19,3.75S563.6,220.24,561.22,221.24Z" fill="#000000"/><path d="M431.83,123.88l-.3,308" stroke="#000000" stroke-width="1" fill="none"/><path d="M365.88,431a65.9,65.9,0,0,1,66,.56" stroke="#000000" stroke-width="2" fill="none"/><path d="M410.67,439.52a44.45,44.45,0,0,0-44.79-.16" stroke="#000000" stroke-width="2" fill="none"/><polygon points="431.1 123.01 420.61 137.27 442.59 137.27 431.1 123.01" fill="#ffffff"/><path d="M431.1,138.27h0a1,1,0,0,1-.8-.4l-10.49-14.26a.94.94,0,0,1,0-1.33,1,1,0,0,1,1.35.09l10,13.54,10-13.54a1,1,0,0,1,1.35-.09.94.94,0,0,1,0,1.33l-10.49,14.26A1,1,0,0,1,431.1,138.27Z" fill="#000000"/><path d="M366,431a67,67,0,0,1,67.6.64.94.94,0,0,1-.15,1.68,65.09,65.09,0,0,0-65.2-.6A.94.94,0,0,1,366,431Z" fill="#000000"/><path d="M410.67,440.52a45.35,45.35,0,0,1-44.79-.16.94.94,0,0,1,.15-1.68,43.47,43.47,0,0,0,43.49.14A.94.94,0,0,1,410.67,440.52Z" fill="#000000"/><path d="M431.76,172c-4.55-1-4.2,2.54-4.2,2.54s-.26,1.27.31,1.58,4.39,1.09,4.95,0,1.1-2.36,1.1-2.36S436.31,173,431.76,172Z" fill="#fc66a7"/><path d="M466.85,308.36c-4.55-1-4.2,2.54-4.2,2.54s-.26,1.27.31,1.58,4.39,1.09,4.95,0,1.1-2.36,1.1-2.36S471.4,309.32,466.85,308.36Z" fill="#fc66a7"/><path d="M457.41,319.65c-4.55-1-4.2,2.54-4.2,2.54s-.26,1.27.31,1.58,4.39,1.09,4.95,0,1.1-2.36,1.1-2.36S461.96,320.61,457.41,319.65Z" fill="#fc66a7"/><circle cx="428.02" cy="286.15" r="8.56" fill="#fc66a7"/><path d="M428.02,295.71a9.56,9.56,0,1,1,9.56-9.56A9.57,9.57,0,0,1,428.02,295.71Zm0-17.12a7.56,7.56,0,1,0,7.56,7.56A7.57,7.57,0,0,1,428.02,278.59Z" fill="#000000"/><path d="M465.71,517.34l-80.78-.56,0,.94,80.78.56Z" fill="#000000"/><path d="M385.93,479.65l.1,37.58,80.68.57-.1-37.58Z" fill="#ffffff"/><path d="M466.71,517.94a1,1,0,0,1-80.78-.56,1,1,0,0,1,.95-1,1,1,0,0,1,.95.94l80.78.56a1,1,0,0,1,0,1.92Z" fill="#000000"/><path d="M386.71,517.8a1,1,0,0,1-1-1V479.22a1,1,0,0,1,1.92.14v37.58A1,1,0,0,1,386.71,517.8Z" fill="#000000"/><path d="M466.71,518.36a1,1,0,0,1-.95-1.06v-37.58a1,1,0,0,1,1.92-.14v37.58A1,1,0,0,1,466.71,518.36Z" fill="#000000"/><path d="M361.19,291.58c-1.21.54-1.09,3.11-.39,5.18s2.33,3.24,3.54,2.7,1.09-3.11.39-5.18S362.4,291,361.19,291.58Z" fill="#ffffff"/><path d="M361.19,299.46a3.06,3.06,0,0,1-2.38-1.33c-.82-1.36-.7-3.67.49-4.23a2.14,2.14,0,0,1,1.89.31,2.33,2.33,0,0,1,.77,1.69c.53,1.56.68,2.6.23,3.44A1.74,1.74,0,0,1,361.19,299.46Zm.48-5.24c-.49,0-.89.56-1.14,1.59-.4,1.46-.29,2.41.14,2.91.26.29.68.2,1.05-.24.36-.74.48-1.73.14-2.84C361.5,294.77,361.33,294.22,361.67,294.22Z" fill="#000000"/><path d="M368.14,295.76c-1.21.54-1.09,3.11-.39,5.18s2.33,3.24,3.54,2.7,1.09-3.11.39-5.18S369.35,295.22,368.14,295.76Z" fill="#ffffff"/><path d="M368.14,303.64a3.06,3.06,0,0,1-2.38-1.33c-.82-1.36-.7-3.67.49-4.23a2.14,2.14,0,0,1,1.89.31,2.33,2.33,0,0,1,.77,1.69c.53,1.56.68,2.6.23,3.44A1.74,1.74,0,0,1,368.14,303.64Zm.48-5.24c-.49,0-.89.56-1.14,1.59-.4,1.46-.29,2.41.14,2.91.26.29.68.2,1.05-.24.36-.74.48-1.73.14-2.84C368.45,298.95,368.28,298.4,368.62,298.4Z" fill="#000000"/><path d="M361.91,292.45c-.68-1.21-3.24-1.1-5.31.39s-3.24,2.33-2.57,3.54,3.24,1.1,5.31-.39S362.58,293.66,361.91,292.45Z" fill="#ffffff"/><path d="M356.6,303.38a3.06,3.06,0,0,1-1.33-2.38c-.47-1.53.29-3.82,1.73-4.69a2.15,2.15,0,0,1,1.9-.1,2.33,2.33,0,0,1,1.12,1.45c.9,1.21,1.05,2.25.6,3.39a1.74,1.74,0,0,1-1.68,1A3,3,0,0,1,356.6,303.38Zm.55-5.62c-.41.28-.72,1-.8,1.82-.13,1.54.31,2.43.83,2.68.35.15.83-.15,1.08-.59.35-.61.36-1.67-.31-2.79C357.58,297.2,357.18,297.51,357.15,297.76Z" fill="#000000"/><path d="M472.64,481c-.68-1.21-3.24-1.1-5.31.39s-3.24,2.33-2.57,3.54,3.24,1.1,5.31-.39S473.31,482.22,472.64,481Z" fill="#ffffff"/><path d="M467.33,491.89a3.06,3.06,0,0,1-1.33-2.38c-.47-1.53.29-3.82,1.73-4.69a2.15,2.15,0,0,1,1.9-.1,2.33,2.33,0,0,1,1.12,1.45c.9,1.21,1.05,2.25.6,3.39a1.74,1.74,0,0,1-1.68,1A3,3,0,0,1,467.33,491.89Zm.55-5.62c-.41.28-.72,1-.8,1.82-.13,1.54.31,2.43.83,2.68.35.15.83-.15,1.08-.59.35-.61.36-1.67-.31-2.79C468.31,485.71,467.91,486,467.88,486.27Z" fill="#000000"/><path d="M472.64,308.91c.68-1.21,3.24-1.1,5.31.39s3.24,2.33,2.57,3.54-3.24,1.1-5.31-.39S472,310.11,472.64,308.91Z" fill="#ffffff"/><path d="M477.95,319.8a3.06,3.06,0,0,1,1.33-2.38c1.44-.87,3.2.29,4.64,1.15a2.15,2.15,0,0,1,1.35,1.8,2.33,2.33,0,0,1-.5,1.65c-.9,1.21-1.05,2.25-.6,3.39a1.74,1.74,0,0,1,1.68,1,3,3,0,0,1-1.33,2.38c-1.44.87-3.2-.29-4.64-1.15a2.14,2.14,0,0,1-1.35-1.8,2.33,2.33,0,0,1,.5-1.65c.9-1.21,1.05-2.25.6-3.39A1.74,1.74,0,0,1,477.95,319.8Zm2.15-1.89c-.41.28-.93.75-1.18,1.56-.39,1.48.14,2.38.66,2.63.35.15.83-.15,1.08-.59.35-.61.3-1.73-.31-2.85C480.05,317.23,479.64,317.54,480.1,317.91Z" fill="#000000"/><path d="M361.91,480.51c.68-1.21,3.24-1.1,5.31.39s3.24,2.33,2.57,3.54-3.24,1.1-5.31-.39S361.23,481.71,361.91,480.51Z" fill="#ffffff"/><path d="M367.22,491.4a3.06,3.06,0,0,1,1.33-2.38c1.44-.87,3.2.29,4.64,1.15a2.15,2.15,0,0,1,1.35,1.8,2.33,2.33,0,0,1-.5,1.65c-.9,1.21-1.05,2.25-.6,3.39a1.74,1.74,0,0,1,1.68,1,3,3,0,0,1-1.33,2.38c-1.44.87-3.2-.29-4.64-1.15a2.14,2.14,0,0,1-1.35-1.8,2.33,2.33,0,0,1,.5-1.65c.9-1.21,1.05-2.25.6-3.39A1.74,1.74,0,0,1,367.22,491.4Zm2.15-1.89c-.41.28-.93.75-1.18,1.56-.39,1.48.14,2.38.66,2.63.35.15.83-.15,1.08-.59.35-.61.3-1.73-.31-2.85C369.32,488.83,368.91,489.14,369.37,489.51Z" fill="#000000"/></g></svg>
