<svg xmlns="http://www.w3.org/2000/svg" viewBox="-3 -3 847 601"><g id="deeditor_bgCarrier" stroke-width="0">
    <rect id="dee_c_e" x="-3" y="-3" width="847" height="601" rx="0" fill="#e3dcdc" strokewidth="0"/>
  </g><g id="Layer_30" data-name="Layer 30"><polygon points="310.66 198.92 310.66 239.02 324.86 239.02 336.46 239.02 350.66 239.02 350.66 198.92 310.66 198.92" fill="#fff"/><path d="M350.66,240h-40.1a.94.94,0,0,1-1-1v-40.1a.94.94,0,0,1,1-1h40.1a.94.94,0,0,1,1,1V239A1,1,0,0,1,350.66,240Zm-39-2h38.1v-38.1h-38.1Z" fill="#000000"/><path d="M365,158.72a7.8,7.8,0,1,1,13.7-5.1,8.52,8.52,0,0,1-.3,2.3v2.8H391v-40.1h-40.1v40.1H365" fill="#fff"/><path d="M390.76,159.72h-12.6a.94.94,0,0,1-1-1v-3.1a6.45,6.45,0,0,0,.3-2,6.8,6.8,0,1,0-13.6,0,7,7,0,0,0,1.7,4.5,1.09,1.09,0,0,1,.2,1.1,1,1,0,0,1-.9.6h-14.2a.94.94,0,0,1-1-1v-40.1a.94.94,0,0,1,1-1h40.1a.94.94,0,0,1,1,1v40.1A.92.92,0,0,1,390.76,159.72Zm-11.6-2h10.6v-38.1h-38.1v38.1H363a8.57,8.57,0,0,1-1-4.1,8.8,8.8,0,0,1,17.6,0,9.86,9.86,0,0,1-.3,2.4v1.7Z" fill="#000000"/><path d="M355.86,171.12a7.46,7.46,0,0,0-5.1,1.9v-14.2h-14.2a7.8,7.8,0,1,0-13.7-5.1,7.46,7.46,0,0,0,1.9,5.1h-14.2v40.1h14.2a7.8,7.8,0,1,0,13.7,5.1,7.46,7.46,0,0,0-1.9-5.1h14.2v-14.2a7.8,7.8,0,0,0,12.9-5.9A7.73,7.73,0,0,0,355.86,171.12Z" fill="#fff"/><path d="M330.66,212.82a8.81,8.81,0,0,1-8.8-8.8,9.19,9.19,0,0,1,1-4.1h-12.3a.94.94,0,0,1-1-1v-40.1a.94.94,0,0,1,1-1h12.3a8.57,8.57,0,0,1-1-4.1,8.8,8.8,0,1,1,17.6,0,9.19,9.19,0,0,1-1,4.1h12.3a.94.94,0,0,1,1,1v12.3a8.57,8.57,0,0,1,4.1-1,8.8,8.8,0,1,1,0,17.6,9.19,9.19,0,0,1-4.1-1V199a.94.94,0,0,1-1,1h-12.3a8.57,8.57,0,0,1,1,4.1A8.79,8.79,0,0,1,330.66,212.82Zm-19-14.9h13.2a1,1,0,0,1,.9.6.91.91,0,0,1-.2,1.1,6.62,6.62,0,0,0-1.7,4.5,6.8,6.8,0,1,0,13.6,0,7,7,0,0,0-1.7-4.5,1.09,1.09,0,0,1-.2-1.1,1,1,0,0,1,.9-.6h13.2v-13.2a1,1,0,0,1,.6-.9.91.91,0,0,1,1.1.2,6.62,6.62,0,0,0,4.5,1.7,6.8,6.8,0,1,0,0-13.6,7,7,0,0,0-4.5,1.7,1.09,1.09,0,0,1-1.1.2,1,1,0,0,1-.6-.9v-13.2h-13.2a1,1,0,0,1-.9-.6.91.91,0,0,1,.2-1.1,6.62,6.62,0,0,0,1.7-4.5,6.8,6.8,0,1,0-13.6,0,7,7,0,0,0,1.7,4.5,1.09,1.09,0,0,1,.2,1.1,1,1,0,0,1-.9.6h-13.2Z" fill="#000000"/><path d="M376.56,198.92a7.8,7.8,0,1,1-13.7,5.1,7.46,7.46,0,0,1,1.9-5.1h-14.2v14.2a7.8,7.8,0,1,0-5.1,13.7,7.46,7.4,0,0,0,5.1-1.9v14.2h40.1v-14.2a7.46,7.46,0,0,0,5.1,1.9,7.8,7.8,0,1,0,5.1-13.7v-14.2h-14.2A7.46,7.46,0,0,1,376.56,198.92Z" fill="#fff"/><path d="M376.56,239a8.81,8.81,0,0,1-8.8-8.8,9.19,9.19,0,0,1,1-4.1h-12.3a.94.94,0,0,1-1-1v-13.2a.94.94,0,0,1,1-1h14.2a7.8,7.8,0,1,0-5.1-13.7,7.46,7.46,0,0,0-5.1,1.9v-14.2h-40.1v14.2a7.46,7.46,0,0,0-5.1-1.9,7.8,7.8,0,1,0,5.1,13.7h14.2a.94.94,0,0,1,1,1v13.2a.94.94,0,0,1-1,1h-12.3a9.19,9.19,0,0,1,1,4.1,8.8,8.8,0,1,1,0-17.6,9.19,9.19,0,0,1,4.1,1v-12.3a8.57,8.57,0,0,1-4.1,1,8.8,8.8,0,1,1,0-17.6,9.19,9.19,0,0,1,4.1,1v-12.3a.94.94,0,0,1,1-1h40.1a.94.94,0,0,1,1,1v12.3a9.19,9.19,0,0,1,4.1-1,8.8,8.8,0,1,1,0,17.6,9.19,9.19,0,0,1-4.1-1v12.3a.94.94,0,0,1,1,1h12.3a8.57,8.57,0,0,1-1-4.1A8.79,8.79,0,0,1,376.56,239Z" fill="#000000"/><path d="M520.56,301.22a7.8,7.8,0,1,1-13.7-5.1,7.46,7.46,0,0,1,5.1,1.9v14.2h14.2a7.8,7.8,0,1,0,13.7-5.1,7.46,7.46,0,0,0-1.9-5.1h14.2v-40.1h-14.2a7.8,7.8,0,1,0-13.7,5.1,7.46,7.46,0,0,0,1.9,5.1h-14.2Z" fill="#fff"/><path d="M545.86,352.92a8.81,8.81,0,0,1-8.8-8.8,9.19,9.19,0,0,1,1-4.1h-12.3a.94.94,0,0,1-1-1v-40.1a.94.94,0,0,1,1-1h12.3a8.57,8.57,0,0,1-1-4.1,8.8,8.8,0,1,1,17.6,0,9.19,9.19,0,0,1-1,4.1h12.3a.94.94,0,0,1,1,1v40.1a.94.94,0,0,1-1,1h-12.3a9.19,9.19,0,0,1,1,4.1,8.8,8.8,0,1,1,0-17.6Zm-19-14.9h13.2a1,1,0,0,1,.9.6.91.91,0,0,1-.2,1.1,6.62,6.62,0,0,0-1.7,4.5,6.8,6.8,0,1,0,13.6,0,7,7,0,0,0-1.7-4.5,1.09,1.09,0,0,1-.2-1.1,1,1,0,0,1,.9-.6h13.2v-38.1h-13.2a1,1,0,0,1-.9-.6.91.91,0,0,1,.2-1.1,6.62,6.62,0,0,0,1.7-4.5,6.8,6.8,0,1,0-13.6,0,7,7,0,0,0,1.7,4.5,1.09,1.09,0,0,1,.2,1.1,1,1,0,0,1-.9.6h-13.2Z" fill="#000000"/><path d="M520.56,239a8.81,8.81,0,0,1,0-17.6,9.19,9.19,0,0,1,4.1,1v-12.3a.94.94,0,0,1,1-1h40.1a.94.94,0,0,1,1,1v12.3a9.19,9.19,0,0,1,4.1-1,8.8,8.8,0,1,1,0,17.6,9.19,9.19,0,0,1-4.1-1v12.3h-14.2a7.8,7.8,0,1,0-13.7,5.1,7.46,7.46,0,0,0,5.1-1.9h14.2v14.2a.94.94,0,0,1-1,1h-40.1a.94.94,0,0,1-1-1v-14.2a7.46,7.46,0,0,0-5.1,1.9,7.8,7.8,0,1,0,13.7-5.1h14.2a8.57,8.57,0,0,1-4.1,1A8.79,8.79,0,0,1,520.56,239Z" fill="#000000"/></g></svg>
