<svg viewBox="91.91205673758864 17.434 677.6 550.5160000000001" xmlns="http://www.w3.org/2000/svg" style="max-height: 500px" width="677.6" height="550.5160000000001"><g stroke-width="0" id="deeditor_bgCarrier">
    <rect fill="#e3dcdc" rx="0" height="601" width="847" y="-3" x="-3" id="dee_c_e"/>
  </g><g data-name="Layer 3" id="Layer_3"><rect fill="#fc66a7" height="212.53" width="18.37" y="289.28" x="472.61"/><rect fill="#fc66a7" height="212.53" width="18.37" y="289.28" x="554.25"/><polygon fill="#fefefe" points="430.37 252.9 430.37 284.37 622.37 284.37 622.37 172.29 430.37 172.29 430.37 206.05 430.37 252.9"/><path fill="#000000" d="M563.11,321.11V298.38a1.15,1.15,0,0,1,2.3,0v22.73a1.09,1.09,0,0,1-1.15,1.15A1.15,1.15,0,0,1,563.11,321.11Z"/><path fill="#000000" d="M487.32,321.11V298.38a1.15,1.15,0,0,1,2.3,0v22.73a1.09,1.09,0,0,1-1.15,1.15A1.15,1.15,0,0,1,487.32,321.11Z"/><path fill="#000000" d="M563.11,172.29V149.55a1.15,1.15,0,0,1,2.3,0v22.74a1.15,1.15,0,0,1-2.3,0Z"/><path fill="#000000" d="M487.32,172.29V149.55a1.15,1.15,0,1,1,2.3,0v22.74a1.15,1.15,0,1,1-2.3,0Z"/><rect fill="#fc66a7" height="14.12" width="192" y="284.37" x="430.36"/><path fill="#000000" d="M424.28,284.37a1.09,1.09,0,0,1,1.15-1.15H627.19a1.15,1.15,0,1,1,0,2.29H425.43A1.15,1.15,0,0,1,424.28,284.37Z"/><path fill="#000000" d="M429.22,284.37V253a1.15,1.15,0,1,1,2.29,0v30.2H621.22V173.44H431.51v32.61a1.15,1.15,0,1,1-2.29,0V172.29a1.08,1.08,0,0,1,1.14-1.15h192a1.09,1.09,0,0,1,1.15,1.15V284.37a1.08,1.08,0,0,1-1.15,1.14h-192A1.15,1.15,0,0,1,429.22,284.37Z"/><path fill="#000000" d="M500.3,235.68c-5.05-4.14-5.05-11-5.05-11.37.11-2.07-.46-8-3.1-8.27a8.38,8.38,0,0,1-6-2.64,4.69,4.69,0,0,1-1.26-3.79c.35-3.68,6.66-5.17,7.35-5.28a1.17,1.17,0,1,1,.46,2.29c-2.07.46-5.4,1.84-5.51,3.22a2.4,2.4,0,0,0,.69,2.07,6.38,6.38,0,0,0,4.36,1.83c5.28.35,5.28,9.53,5.28,10.57,0,0,0,6.08,4.25,9.53,3.1,2.41,7.7,3,13.67,1.61a1.17,1.17,0,1,1,.46,2.29,25.53,25.53,0,0,1-6.32.81A15.51,15.51,0,0,1,500.3,235.68Z"/><circle fill="#000000" r="1.49" cy="211.68" cx="507.53"/><circle fill="#000000" r="1.49" cy="211.79" cx="501.22"/><path fill="#000000" d="M511.67,248.77a1.43,1.43,0,0,1-.46-.92l-.46-10.22a1.09,1.09,0,1,1,2.18-.12l.46,9.53c1.49.69,6.78,2.76,13.21-1.72.23-4.94,0-11.94,0-12.06a1.11,1.11,0,0,1,.46-1,1.06,1.06,0,0,1,1-.11,2.81,2.81,0,0,1,.69.58,1.09,1.09,0,0,1,.12,1.49c0,.69-.46,7.7-.69,12.76a1.09,1.09,0,0,1-1.15.92A1,1,0,0,1,511.67,248.77Z"/><circle fill="#000000" r="1.49" cy="211.68" cx="522.36"/><circle fill="#000000" r="1.49" cy="211.79" cx="528.66"/><path fill="#000000" d="M551.17,235.68c5.05-4.14,5.05-11,5.05-11.37-.11-2.07.46-8,3.1-8.27a8.38,8.38,0,0,0,6-2.64,4.69,4.69,0,0,0,1.26-3.79c-.35-3.68-6.66-5.17-7.35-5.28a1.17,1.17,0,1,0-.46,2.29c2.07.46,5.4,1.84,5.51,3.22a2.4,2.4,0,0,1-.69,2.07,6.38,6.38,0,0,1-4.36,1.83c-5.28.35-5.28,9.53-5.28,10.57,0,0,0,6.08-4.25,9.53-3.1,2.41-7.7,3-13.67,1.61a1.17,1.17,0,1,0-.46,2.29,25.53,25.53,0,0,0,6.32.81A15.51,15.51,0,0,0,551.17,235.68Z"/><circle fill="#000000" r="1.49" cy="211.68" cx="543.94"/><circle fill="#000000" r="1.49" cy="211.79" cx="550.24"/><path fill="#000000" d="M569.49,248.77a1.43,1.43,0,0,0,.46-.92l.46-10.22a1.09,1.09,0,1,0-2.18-.12l-.46,9.53c-1.49.69-6.78,2.76-13.21-1.72-.23-4.94,0-11.94,0-12.06a1.11,1.11,0,0,0-.46-1,1.06,1.06,0,0,0-1-.11,2.81,2.81,0,0,0-.69.58,1.09,1.09,0,0,0-.12,1.49c0,.69.46,7.7.69,12.76a1.09,1.09,0,0,0,1.15.92A1,1,0,0,0,569.49,248.77Z"/><circle fill="#000000" r="1.49" cy="211.68" cx="558.8"/><circle fill="#000000" r="1.49" cy="211.79" cx="552.5"/></g></svg>
