<?xml version="1.0" encoding="utf-8"?>
<svg version="1.1" id="Layer_1" xmlns="http://www.w3.org/2000/svg" xmlns:xlink="http://www.w3.org/1999/xlink" x="0px" y="0px" viewBox="127 122 589 150" style="enable-background:new 127 122 589 150;" xml:space="preserve">
<style type="text/css">
	.st0{fill:#181716;}
</style>
<g>
	<path class="st0" d="M144.44,241.39c1.05,0.27,2.05,0.64,2.99,1.11c0.94,0.47,1.77,1.04,2.48,1.73c0.71,0.68,1.28,1.47,1.7,2.38
		c0.42,0.91,0.63,1.91,0.63,3.03c0,1.47-0.3,2.76-0.89,3.88c-0.59,1.11-1.39,2.05-2.38,2.8c-0.99,0.75-2.14,1.32-3.44,1.69
		c-1.3,0.37-2.66,0.56-4.06,0.56c-1.45,0-2.84-0.19-4.16-0.56c-1.32-0.37-2.49-0.94-3.5-1.7c-1.01-0.76-1.82-1.7-2.43-2.82
		c-0.61-1.12-0.91-2.42-0.91-3.9c0-1.12,0.21-2.13,0.63-3.04c0.42-0.91,0.99-1.7,1.7-2.38c0.71-0.68,1.54-1.26,2.48-1.73
		c0.94-0.47,1.94-0.84,2.99-1.11v-0.1c-0.91-0.27-1.78-0.62-2.58-1.05c-0.8-0.43-1.51-0.95-2.12-1.56c-0.61-0.61-1.09-1.3-1.45-2.08
		c-0.36-0.78-0.53-1.64-0.53-2.58c0-1.37,0.28-2.58,0.84-3.62c0.56-1.04,1.32-1.91,2.27-2.61c0.95-0.7,2.06-1.23,3.32-1.59
		c1.26-0.36,2.61-0.54,4.04-0.54c1.4,0,2.73,0.18,3.98,0.54c1.25,0.36,2.35,0.89,3.3,1.59c0.95,0.7,1.7,1.57,2.27,2.61
		c0.56,1.04,0.84,2.25,0.84,3.62c0,0.94-0.18,1.8-0.53,2.58c-0.36,0.78-0.84,1.47-1.45,2.08c-0.61,0.61-1.32,1.13-2.12,1.56
		c-0.8,0.43-1.66,0.78-2.58,1.05V241.39z M141.06,242.05c-0.89,0.21-1.7,0.51-2.43,0.91c-0.73,0.4-1.36,0.87-1.88,1.43
		c-0.52,0.56-0.93,1.19-1.23,1.88c-0.3,0.7-0.44,1.45-0.44,2.25c0,0.99,0.21,1.87,0.63,2.63c0.42,0.76,0.98,1.41,1.68,1.94
		c0.7,0.53,1.51,0.94,2.43,1.21c0.92,0.28,1.88,0.42,2.89,0.42c1.01,0,1.97-0.14,2.89-0.42c0.92-0.28,1.73-0.68,2.43-1.21
		c0.7-0.53,1.26-1.18,1.68-1.94c0.42-0.76,0.63-1.64,0.63-2.63c0-0.8-0.15-1.56-0.44-2.25c-0.3-0.7-0.71-1.32-1.23-1.88
		c-0.52-0.56-1.15-1.03-1.88-1.43c-0.73-0.4-1.54-0.7-2.43-0.91V242.05z M141.06,232.3c-0.8,0.23-1.52,0.54-2.16,0.95
		c-0.64,0.41-1.17,0.88-1.59,1.43c-0.42,0.55-0.74,1.15-0.96,1.8c-0.22,0.65-0.33,1.32-0.33,2.01c0,0.92,0.18,1.74,0.54,2.45
		c0.36,0.71,0.85,1.3,1.47,1.78c0.62,0.48,1.34,0.85,2.16,1.11c0.82,0.26,1.7,0.39,2.64,0.39c0.94,0,1.82-0.13,2.64-0.39
		c0.82-0.26,1.54-0.63,2.16-1.11c0.62-0.48,1.11-1.07,1.47-1.78c0.36-0.71,0.54-1.53,0.54-2.45c0-0.69-0.11-1.36-0.33-2.01
		c-0.22-0.65-0.54-1.25-0.96-1.8c-0.42-0.55-0.95-1.03-1.59-1.43c-0.64-0.41-1.36-0.72-2.16-0.95V232.3z"/>
	<path class="st0" d="M173.18,241.39c1.05,0.27,2.05,0.64,2.99,1.11c0.94,0.47,1.77,1.04,2.48,1.73c0.71,0.68,1.28,1.47,1.7,2.38
		c0.42,0.91,0.63,1.91,0.63,3.03c0,1.47-0.3,2.76-0.89,3.88c-0.59,1.11-1.39,2.05-2.38,2.8c-0.99,0.75-2.14,1.32-3.44,1.69
		c-1.3,0.37-2.66,0.56-4.06,0.56c-1.45,0-2.84-0.19-4.16-0.56c-1.32-0.37-2.49-0.94-3.5-1.7c-1.01-0.76-1.82-1.7-2.43-2.82
		c-0.61-1.12-0.91-2.42-0.91-3.9c0-1.12,0.21-2.13,0.63-3.04c0.42-0.91,0.99-1.7,1.7-2.38c0.71-0.68,1.54-1.26,2.48-1.73
		c0.94-0.47,1.94-0.84,2.99-1.11v-0.1c-0.91-0.27-1.78-0.62-2.58-1.05c-0.8-0.43-1.51-0.95-2.12-1.56c-0.61-0.61-1.09-1.3-1.45-2.08
		c-0.36-0.78-0.53-1.64-0.53-2.58c0-1.37,0.28-2.58,0.84-3.62c0.56-1.04,1.32-1.91,2.27-2.61c0.95-0.7,2.06-1.23,3.32-1.59
		c1.26-0.36,2.61-0.54,4.04-0.54c1.4,0,2.73,0.18,3.98,0.54c1.25,0.36,2.35,0.89,3.3,1.59c0.95,0.7,1.7,1.57,2.27,2.61
		c0.56,1.04,0.84,2.25,0.84,3.62c0,0.94-0.18,1.8-0.53,2.58c-0.36,0.78-0.84,1.47-1.45,2.08c-0.61,0.61-1.32,1.13-2.12,1.56
		c-0.8,0.43-1.66,0.78-2.58,1.05V241.39z M169.8,242.05c-0.89,0.21-1.7,0.51-2.43,0.91c-0.73,0.4-1.36,0.87-1.88,1.43
		c-0.52,0.56-0.93,1.19-1.23,1.88c-0.3,0.7-0.44,1.45-0.44,2.25c0,0.99,0.21,1.87,0.63,2.63c0.42,0.76,0.98,1.41,1.68,1.94
		c0.7,0.53,1.51,0.94,2.43,1.21c0.92,0.28,1.88,0.42,2.89,0.42c1.01,0,1.97-0.14,2.89-0.42c0.92-0.28,1.73-0.68,2.43-1.21
		c0.7-0.53,1.26-1.18,1.68-1.94c0.42-0.76,0.63-1.64,0.63-2.63c0-0.8-0.15-1.56-0.44-2.25c-0.3-0.7-0.71-1.32-1.23-1.88
		c-0.52-0.56-1.15-1.03-1.88-1.43c-0.73-0.4-1.54-0.7-2.43-0.91V242.05z M169.8,232.3c-0.8,0.23-1.52,0.54-2.16,0.95
		c-0.64,0.41-1.17,0.88-1.59,1.43c-0.42,0.55-0.74,1.15-0.96,1.8c-0.22,0.65-0.33,1.32-0.33,2.01c0,0.92,0.18,1.74,0.54,2.45
		c0.36,0.71,0.85,1.3,1.47,1.78c0.62,0.48,1.34,0.85,2.16,1.11c0.82,0.26,1.7,0.39,2.64,0.39c0.94,0,1.82-0.13,2.64-0.39
		c0.82-0.26,1.54-0.63,2.16-1.11c0.62-0.48,1.11-1.07,1.47-1.78c0.36-0.71,0.54-1.53,0.54-2.45c0-0.69-0.11-1.36-0.33-2.01
		c-0.22-0.65-0.54-1.25-0.96-1.8c-0.42-0.55-0.95-1.03-1.59-1.43c-0.64-0.41-1.36-0.72-2.16-0.95V232.3z"/>
	<path class="st0" d="M234.85,208.04c1.07,0,2.1,0.22,3.08,0.66c0.98,0.44,1.84,1.05,2.56,1.84c0.73,0.79,1.31,1.72,1.73,2.8
		c0.42,1.08,0.63,2.26,0.63,3.54c0,1.19-0.21,2.32-0.63,3.39c-0.42,1.07-1,2.01-1.73,2.82c-0.73,0.81-1.58,1.45-2.56,1.92
		c-0.98,0.47-2.02,0.71-3.13,0.71c-0.68,0-1.35-0.1-1.99-0.29c-0.64-0.19-1.22-0.48-1.73-0.86v11.6h-5.14v-27.77h4.89v1.57
		c0.53-0.55,1.14-1,1.83-1.35C233.36,208.21,234.09,208.04,234.85,208.04z M233.91,221.14c0.64,0,1.25-0.15,1.83-0.44
		c0.58-0.29,1.09-0.68,1.52-1.18c0.43-0.5,0.77-1.07,1.03-1.73c0.25-0.66,0.38-1.35,0.38-2.09c0-0.76-0.12-1.47-0.37-2.14
		c-0.25-0.67-0.6-1.26-1.04-1.76c-0.44-0.5-0.96-0.9-1.55-1.19c-0.59-0.29-1.23-0.44-1.92-0.44c-0.66,0-1.29,0.15-1.88,0.44
		c-0.59,0.29-1.11,0.69-1.55,1.19c-0.44,0.5-0.79,1.08-1.05,1.76c-0.25,0.67-0.38,1.38-0.38,2.14c0,0.74,0.13,1.44,0.38,2.09
		c0.26,0.66,0.6,1.24,1.04,1.73c0.44,0.5,0.95,0.89,1.54,1.18C232.67,220.99,233.27,221.14,233.91,221.14z"/>
	<path class="st0" d="M261.09,213.62c-0.17-0.19-0.41-0.37-0.73-0.54c-0.32-0.17-0.66-0.25-1.03-0.25c-0.72,0-1.37,0.19-1.94,0.56
		c-0.57,0.37-1.06,0.86-1.47,1.45c-0.4,0.59-0.72,1.25-0.94,1.99c-0.22,0.74-0.33,1.48-0.33,2.23v6.15h-5.14v-17.29h4.89v2.89
		c0.45-0.91,1.09-1.68,1.92-2.29c0.83-0.62,1.77-0.92,2.82-0.92c0.47,0,0.9,0.07,1.28,0.21c0.38,0.14,0.7,0.31,0.96,0.52
		L261.09,213.62z"/>
	<path class="st0" d="M278.47,217.22c0,1.35-0.23,2.6-0.69,3.75c-0.46,1.15-1.09,2.15-1.89,3c-0.8,0.85-1.74,1.51-2.82,1.99
		c-1.08,0.48-2.24,0.71-3.49,0.71c-1.25,0-2.41-0.24-3.49-0.71c-1.08-0.47-2.02-1.13-2.82-1.99c-0.8-0.85-1.43-1.85-1.89-3
		c-0.46-1.15-0.69-2.4-0.69-3.75s0.23-2.6,0.69-3.75c0.46-1.15,1.09-2.15,1.89-3c0.8-0.85,1.74-1.51,2.82-1.99
		c1.08-0.48,2.24-0.71,3.49-0.71c1.25,0,2.41,0.24,3.49,0.71c1.08,0.47,2.02,1.14,2.82,1.99c0.8,0.85,1.43,1.85,1.89,3
		C278.24,214.62,278.47,215.87,278.47,217.22z M273.29,217.22c0-0.72-0.12-1.39-0.37-2.01c-0.25-0.62-0.59-1.16-1.02-1.61
		c-0.43-0.45-0.93-0.81-1.49-1.06c-0.56-0.26-1.16-0.38-1.8-0.38c-0.64,0-1.24,0.13-1.8,0.38c-0.56,0.26-1.06,0.61-1.49,1.06
		c-0.43,0.45-0.77,0.99-1.02,1.61c-0.25,0.62-0.37,1.29-0.37,2.01c0,0.7,0.12,1.36,0.37,1.97c0.25,0.61,0.59,1.14,1.02,1.59
		c0.43,0.45,0.93,0.8,1.49,1.06c0.56,0.26,1.16,0.39,1.8,0.39c0.64,0,1.24-0.13,1.8-0.39c0.56-0.26,1.06-0.61,1.49-1.06
		c0.43-0.45,0.77-0.98,1.02-1.59C273.16,218.58,273.29,217.92,273.29,217.22z"/>
	<path class="st0" d="M297.84,225.21h-5.14v-1.57c-0.47,0.55-1.08,1.02-1.83,1.39c-0.75,0.38-1.54,0.57-2.38,0.57
		c-1.07,0-2.1-0.24-3.08-0.71c-0.98-0.47-1.84-1.11-2.56-1.92c-0.73-0.81-1.31-1.75-1.73-2.82c-0.42-1.07-0.63-2.2-0.63-3.39
		c0-1.28,0.21-2.46,0.63-3.54c0.42-1.08,1-2.01,1.73-2.8c0.73-0.79,1.58-1.4,2.56-1.84c0.98-0.44,2.02-0.66,3.13-0.66
		c0.76,0,1.49,0.16,2.18,0.48c0.69,0.32,1.3,0.75,1.83,1.3v-1.57h4.89v10.14v7.15H297.84z M289.07,221.14
		c0.64,0,1.24-0.15,1.83-0.44c0.58-0.29,1.09-0.68,1.52-1.18c0.43-0.5,0.77-1.07,1.03-1.73c0.25-0.66,0.38-1.35,0.38-2.09
		c0-0.76-0.13-1.47-0.38-2.14c-0.26-0.67-0.61-1.26-1.05-1.76c-0.44-0.5-0.96-0.9-1.55-1.19c-0.59-0.29-1.23-0.44-1.92-0.44
		c-0.66,0-1.29,0.15-1.88,0.44c-0.59,0.29-1.11,0.69-1.55,1.19c-0.44,0.5-0.79,1.08-1.05,1.76c-0.26,0.67-0.38,1.38-0.38,2.14
		c0,0.74,0.13,1.44,0.38,2.09c0.26,0.66,0.61,1.24,1.04,1.73c0.43,0.5,0.95,0.89,1.54,1.18C287.83,220.99,288.43,221.14,289.07,221.14
		z"/>
	<path class="st0" d="M316.52,225.21h-4.89v-1.78c-0.51,0.62-1.14,1.13-1.9,1.52c-0.76,0.39-1.59,0.59-2.49,0.59
		c-1.05,0-1.97-0.16-2.77-0.48c-0.8-0.32-1.47-0.77-2.02-1.35c-0.55-0.58-0.95-1.26-1.22-2.06c-0.27-0.8-0.4-1.66-0.4-2.6v-11.14
		h5.14v10.35c0,1.19,0.26,2.08,0.77,2.66c0.51,0.58,1.23,0.88,2.14,0.88c0.96,0,1.73-0.31,2.31-0.92c0.58-0.61,0.88-1.53,0.88-2.77
		v-10.2h5.14v10.56v6.73H316.52z"/>
	<path class="st0" d="M338.14,207.92v13.76c0,1.47-0.23,2.8-0.69,3.98c-0.46,1.18-1.1,2.19-1.92,3.02c-0.82,0.83-1.8,1.48-2.93,1.94
		c-1.13,0.46-2.38,0.69-3.75,0.69c-1.39,0-2.65-0.23-3.79-0.69c-1.14-0.46-2.11-1.11-2.93-1.94c-0.82-0.83-1.46-1.84-1.92-3.02
		c-0.46-1.18-0.69-2.51-0.69-3.98v-13.76h5.14v13.43c0,0.76,0.11,1.46,0.33,2.1c0.22,0.64,0.53,1.19,0.94,1.66
		c0.4,0.47,0.9,0.84,1.49,1.11c0.59,0.27,1.26,0.4,2.01,0.4c0.74,0,1.4-0.13,1.99-0.4c0.59-0.27,1.09-0.64,1.49-1.11
		c0.4-0.47,0.71-1.02,0.94-1.66c0.22-0.64,0.33-1.34,0.33-2.1v-13.43H338.14z"/>
	<path class="st0" d="M356.63,212.37c-0.7-0.55-1.51-0.82-2.43-0.82c-0.64,0-1.25,0.15-1.83,0.44c-0.58,0.29-1.09,0.69-1.52,1.19
		c-0.43,0.5-0.77,1.08-1.03,1.76c-0.25,0.67-0.38,1.38-0.38,2.14c0,0.74,0.13,1.44,0.38,2.09c0.26,0.66,0.6,1.24,1.04,1.73
		c0.44,0.5,0.95,0.89,1.54,1.18c0.59,0.29,1.19,0.44,1.8,0.44c1.01,0,1.88-0.31,2.62-0.94c0.74-0.63,1.24-1.43,1.52-2.41h5.1
		c-0.3,1.33-0.8,2.5-1.49,3.49c-0.69,0.99-1.52,1.83-2.49,2.5c-0.97,0.67-2.02,1.18-3.15,1.52c-1.13,0.34-2.28,0.52-3.44,0.52
		c-1.37,0-2.64-0.24-3.81-0.71c-1.17-0.47-2.19-1.13-3.06-1.99c-0.87-0.85-1.55-1.85-2.04-3c-0.49-1.15-0.73-2.4-0.73-3.75
		s0.24-2.6,0.73-3.75c0.49-1.15,1.17-2.15,2.04-3c0.87-0.85,1.89-1.51,3.06-1.99c1.17-0.48,2.44-0.71,3.81-0.71
		c1.05,0,2.08,0.15,3.1,0.44c1.02,0.29,1.96,0.73,2.82,1.31c0.86,0.58,1.59,1.31,2.2,2.18c0.61,0.87,1.05,1.89,1.33,3.06h-5.1
		C358.15,213.62,357.54,212.84,356.63,212.37z"/>
	<path class="st0" d="M376.89,225.21c-0.17,0.19-0.41,0.35-0.73,0.48c-0.32,0.13-0.65,0.19-0.99,0.19c-0.62,0-1.16-0.23-1.61-0.69
		c-0.45-0.46-0.67-1-0.67-1.63v-10.52h-2.51v-4.14h2.51v-5.03h5.14v5.03h2.89v4.14h-2.89v8.93c0,0.21,0.07,0.38,0.21,0.52
		c0.14,0.14,0.31,0.21,0.52,0.21c0.25,0,0.49-0.06,0.71-0.17c0.22-0.11,0.4-0.25,0.54-0.42l1.99,3.52
		c-0.62,0.62-1.31,1.07-2.06,1.35C378.68,225.67,377.84,225.64,376.89,225.21z"/>
	<path class="st0" d="M396.05,212.29c-0.23-0.38-0.56-0.69-0.99-0.94c-0.43-0.25-0.94-0.38-1.52-0.38c-0.38,0-0.76,0.06-1.15,0.19
		c-0.38,0.13-0.73,0.3-1.03,0.52c-0.3,0.22-0.54,0.48-0.73,0.79c-0.19,0.31-0.28,0.64-0.28,1.01c0,0.62,0.21,1.14,0.63,1.57
		c0.42,0.43,0.95,0.78,1.59,1.07c0.64,0.29,1.33,0.54,2.06,0.75c0.73,0.21,1.42,0.45,2.06,0.73c0.64,0.28,1.17,0.63,1.59,1.07
		c0.42,0.43,0.63,1.03,0.63,1.78c0,0.87-0.17,1.63-0.52,2.27c-0.35,0.64-0.8,1.17-1.37,1.59c-0.57,0.42-1.22,0.73-1.94,0.94
		c-0.72,0.21-1.45,0.31-2.18,0.31c-2.39,0-4.31-0.81-5.77-2.43l3.6-2.89c0.25,0.49,0.66,0.91,1.23,1.26
		c0.57,0.35,1.19,0.52,1.86,0.52c0.91,0,1.66-0.2,2.27-0.61c0.61-0.41,0.92-0.97,0.92-1.7c0-0.64-0.21-1.18-0.63-1.61
		c-0.42-0.43-0.95-0.79-1.59-1.07c-0.64-0.28-1.33-0.53-2.06-0.75c-0.73-0.22-1.42-0.47-2.06-0.75c-0.64-0.28-1.17-0.64-1.59-1.07
		c-0.42-0.43-0.63-1.01-0.63-1.73c0-0.85,0.17-1.59,0.5-2.22c0.33-0.63,0.78-1.17,1.33-1.61c0.55-0.44,1.18-0.77,1.88-0.99
		c0.7-0.22,1.42-0.33,2.16-0.33c1.03,0,1.96,0.17,2.82,0.5c0.86,0.33,1.61,0.87,2.27,1.61L396.05,212.29z"/>
	<path class="st0" d="M235.13,250.44v10.6c0,0.3,0.08,0.51,0.23,0.65c0.15,0.14,0.39,0.21,0.71,0.21h2.06v3.31h-2.85
		c-0.62,0-1.16-0.06-1.61-0.19c-0.45-0.13-0.83-0.33-1.13-0.61c-0.3-0.28-0.52-0.64-0.67-1.09c-0.15-0.45-0.23-0.98-0.23-1.61v-11.26
		h-1.94v-3.35h1.94v-4.31h4.43v4.31h2.89v3.35H235.13z"/>
	<path class="st0" d="M257.72,254.67c0,1.17-0.2,2.24-0.61,3.23c-0.4,0.99-0.96,1.85-1.67,2.58c-0.71,0.73-1.54,1.3-2.5,1.71
		c-0.96,0.41-1.99,0.61-3.1,0.61c-1.11,0-2.14-0.2-3.1-0.61c-0.96-0.41-1.79-0.98-2.5-1.71c-0.71-0.73-1.27-1.59-1.67-2.58
		c-0.4-0.99-0.61-2.07-0.61-3.23c0-1.17,0.2-2.24,0.61-3.23c0.4-0.99,0.96-1.85,1.67-2.58c0.71-0.73,1.54-1.3,2.5-1.71
		c0.96-0.41,1.99-0.61,3.1-0.61c1.11,0,2.14,0.2,3.1,0.61c0.96,0.41,1.79,0.98,2.5,1.71c0.71,0.73,1.27,1.59,1.67,2.58
		C257.52,252.44,257.72,253.51,257.72,254.67z M253.26,254.67c0-0.62-0.1-1.2-0.31-1.73c-0.21-0.53-0.49-0.99-0.85-1.38
		c-0.36-0.39-0.78-0.7-1.26-0.92c-0.48-0.22-0.99-0.33-1.54-0.33c-0.55,0-1.06,0.11-1.54,0.33c-0.48,0.22-0.9,0.52-1.26,0.92
		c-0.36,0.39-0.64,0.85-0.85,1.38c-0.21,0.53-0.31,1.11-0.31,1.73c0,0.6,0.1,1.17,0.31,1.69c0.21,0.52,0.49,0.98,0.85,1.37
		c0.36,0.39,0.78,0.69,1.26,0.92c0.48,0.22,0.99,0.33,1.54,0.33c0.55,0,1.06-0.11,1.54-0.33c0.48-0.22,0.9-0.52,1.26-0.92
		c0.36-0.39,0.64-0.85,0.85-1.37C253.16,255.84,253.26,255.27,253.26,254.67z"/>
	<path class="st0" d="M283.11,265.21h-4.22v-1.36c-0.43,0.54-0.99,0.97-1.64,1.31c-0.65,0.34-1.37,0.5-2.14,0.5
		c-0.92,0-1.81-0.21-2.66-0.61c-0.85-0.41-1.59-0.98-2.22-1.71c-0.63-0.73-1.13-1.59-1.5-2.58c-0.37-0.99-0.56-2.07-0.56-3.23
		c0-1.11,0.18-2.16,0.54-3.15c0.36-0.99,0.87-1.85,1.52-2.58c0.65-0.73,1.41-1.3,2.29-1.71c0.88-0.41,1.84-0.61,2.87-0.61
		c0.66,0,1.29,0.14,1.88,0.42c0.59,0.28,1.12,0.64,1.59,1.11v-1.3h4.22v8.76v7.73H283.11z M275.58,260.13
		c0.55,0,1.07-0.11,1.57-0.33c0.5-0.22,0.94-0.52,1.31-0.9c0.37-0.38,0.66-0.83,0.88-1.35c0.22-0.52,0.33-1.07,0.33-1.67
		c0-0.66-0.11-1.26-0.33-1.82c-0.22-0.56-0.52-1.05-0.9-1.47c-0.38-0.42-0.83-0.76-1.33-1c-0.5-0.25-1.05-0.37-1.64-0.37
		c-0.57,0-1.11,0.12-1.61,0.37c-0.5,0.25-0.94,0.58-1.31,0.99c-0.37,0.42-0.67,0.9-0.9,1.46c-0.22,0.56-0.33,1.15-0.33,1.79
		c0,0.64,0.11,1.24,0.33,1.8c0.22,0.56,0.52,1.05,0.9,1.46c0.38,0.42,0.82,0.75,1.33,1C274.39,260.01,274.96,260.13,275.58,260.13z"
		/>
	<path class="st0" d="M302.02,260.61v-10.52c0-1.03-0.23-1.79-0.69-2.29c-0.46-0.5-1.05-0.75-1.78-0.75c-0.83,0-1.49,0.27-1.99,0.82
		c-0.5,0.55-0.75,1.32-0.75,2.39v10.35h-4.43v-15.01h4.22v1.53c0.45-0.53,0.99-0.98,1.63-1.33c0.64-0.35,1.37-0.52,2.2-0.52
		c0.91,0,1.7,0.14,2.39,0.42c0.69,0.28,1.27,0.67,1.73,1.17c0.46,0.5,0.81,1.09,1.05,1.78c0.23,0.69,0.35,1.44,0.35,2.25v9.7
		L302.02,260.61L302.02,260.61z"/>
	<path class="st0" d="M316.93,250.44v10.6c0,0.3,0.08,0.51,0.23,0.65c0.15,0.14,0.39,0.21,0.71,0.21h2.06v3.31h-2.85
		c-0.62,0-1.16-0.06-1.61-0.19c-0.45-0.13-0.83-0.33-1.13-0.61c-0.3-0.28-0.52-0.64-0.67-1.09c-0.15-0.45-0.23-0.98-0.23-1.61v-11.26
		h-1.94v-3.35h1.94v-4.31h4.43v4.31h2.89v3.35H316.93z"/>
	<path class="st0" d="M339.36,254.67c0,1.17-0.2,2.24-0.61,3.23c-0.4,0.99-0.96,1.85-1.67,2.58c-0.71,0.73-1.54,1.3-2.5,1.71
		c-0.96,0.41-1.99,0.61-3.1,0.61c-1.11,0-2.14-0.2-3.1-0.61c-0.96-0.41-1.79-0.98-2.5-1.71c-0.71-0.73-1.27-1.59-1.67-2.58
		c-0.4-0.99-0.61-2.07-0.61-3.23c0-1.17,0.2-2.24,0.61-3.23c0.4-0.99,0.96-1.85,1.67-2.58c0.71-0.73,1.54-1.3,2.5-1.71
		c0.96-0.41,1.99-0.61,3.1-0.61c1.11,0,2.14,0.2,3.1,0.61c0.96,0.41,1.79,0.98,2.5,1.71c0.71,0.73,1.27,1.59,1.67,2.58
		C339.16,252.44,339.36,253.51,339.36,254.67z M334.9,254.67c0-0.62-0.1-1.2-0.31-1.73c-0.21-0.53-0.49-0.99-0.85-1.38
		c-0.36-0.39-0.78-0.7-1.26-0.92c-0.48-0.22-0.99-0.33-1.54-0.33c-0.55,0-1.06,0.11-1.54,0.33c-0.48,0.22-0.9,0.52-1.26,0.92
		c-0.36,0.39-0.64,0.85-0.85,1.38c-0.21,0.53-0.31,1.11-0.31,1.73c0,0.6,0.1,1.17,0.31,1.69c0.21,0.52,0.49,0.98,0.85,1.37
		c0.36,0.39,0.78,0.69,1.26,0.92c0.48,0.22,0.99,0.33,1.54,0.33c0.55,0,1.06-0.11,1.54-0.33c0.48-0.22,0.9-0.52,1.26-0.92
		c0.36-0.39,0.64-0.85,0.85-1.37C334.8,255.84,334.9,255.27,334.9,254.67z"/>
	<path class="st0" d="M348.46,245.6v12.26c0,0.81-0.18,1.54-0.54,2.18c-0.36,0.64-0.84,1.19-1.45,1.63c-0.61,0.44-1.31,0.79-2.1,1.03
		c-0.79,0.24-1.62,0.37-2.49,0.37c-0.87,0-1.7-0.12-2.49-0.37c-0.79-0.25-1.49-0.59-2.1-1.03c-0.61-0.44-1.09-0.98-1.45-1.63
		c-0.36-0.65-0.54-1.37-0.54-2.18v-12.26h4.43v11.99c0,0.49,0.17,0.9,0.52,1.23c0.35,0.33,0.81,0.5,1.38,0.5
		c0.57,0,1.03-0.17,1.38-0.5c0.35-0.33,0.52-0.74,0.52-1.23V245.6H348.46z"/>
	<path class="st0" d="M356.64,251.27c-0.15-0.16-0.36-0.32-0.63-0.46c-0.27-0.15-0.57-0.22-0.88-0.22c-0.62,0-1.18,0.16-1.67,0.48
		c-0.49,0.32-0.91,0.74-1.26,1.25c-0.35,0.51-0.62,1.08-0.81,1.71c-0.19,0.64-0.29,1.28-0.29,1.92v5.3h-4.43v-14.9h4.22v2.49
		c0.38-0.78,0.94-1.45,1.65-1.97c0.71-0.53,1.52-0.79,2.43-0.79c0.4,0,0.78,0.06,1.11,0.17c0.33,0.12,0.6,0.27,0.83,0.44
		L356.64,251.27z"/>
	<path class="st0" d="M382.13,258.75h-13.46c0.09,0.49,0.27,0.94,0.54,1.35c0.27,0.41,0.6,0.76,0.99,1.05
		c0.39,0.29,0.81,0.52,1.28,0.69c0.47,0.17,0.96,0.25,1.47,0.25c0.83,0,1.54-0.21,2.14-0.63c0.6-0.42,1.03-0.94,1.28-1.57h5.35
		c-0.47,1.43-1.13,2.59-1.99,3.46c-0.86,0.87-1.83,1.56-2.91,2.06c-1.08,0.5-2.22,0.83-3.42,1.01c-1.2,0.18-2.37,0.27-3.52,0.27
		c-1.26,0-2.47-0.21-3.62-0.63c-1.15-0.42-2.16-1.02-3.02-1.8c-0.86-0.78-1.55-1.74-2.06-2.87c-0.51-1.13-0.77-2.42-0.77-3.87
		c0-1.32,0.24-2.53,0.71-3.62c0.47-1.09,1.11-2.03,1.92-2.82c0.81-0.79,1.75-1.4,2.82-1.84c1.07-0.44,2.21-0.67,3.42-0.67
		c1.37,0,2.61,0.26,3.71,0.77c1.1,0.51,2.03,1.21,2.79,2.08c0.76,0.87,1.34,1.87,1.73,3.02c0.39,1.15,0.56,2.37,0.5,3.67V258.75z
		 M377.78,255.67c-0.09-1.01-0.49-1.81-1.19-2.41c-0.7-0.6-1.54-0.9-2.52-0.9c-0.51,0-0.98,0.09-1.42,0.27
		c-0.44,0.18-0.82,0.43-1.15,0.75c-0.33,0.32-0.59,0.7-0.79,1.13c-0.2,0.43-0.32,0.89-0.35,1.38h7.41V255.67z"/>
	<path class="st0" d="M401.61,265.21h-4.22v-1.36c-0.43,0.54-0.99,0.97-1.64,1.31c-0.65,0.34-1.37,0.5-2.14,0.5
		c-0.92,0-1.81-0.21-2.66-0.61c-0.85-0.41-1.59-0.98-2.22-1.71c-0.63-0.73-1.13-1.59-1.5-2.58c-0.37-0.99-0.56-2.07-0.56-3.23
		c0-1.11,0.18-2.16,0.54-3.15c0.36-0.99,0.87-1.85,1.52-2.58c0.65-0.73,1.41-1.3,2.29-1.71c0.88-0.41,1.84-0.61,2.87-0.61
		c0.66,0,1.29,0.14,1.88,0.42c0.59,0.28,1.12,0.64,1.59,1.11v-1.3h4.22v8.76v7.73H401.61z M394.07,260.13
		c0.55,0,1.07-0.11,1.57-0.33c0.5-0.22,0.94-0.52,1.31-0.9c0.37-0.38,0.66-0.83,0.88-1.35c0.22-0.52,0.33-1.07,0.33-1.67
		c0-0.66-0.11-1.26-0.33-1.82c-0.22-0.56-0.52-1.05-0.9-1.47c-0.38-0.42-0.83-0.76-1.33-1c-0.5-0.25-1.05-0.37-1.64-0.37
		c-0.57,0-1.11,0.12-1.61,0.37c-0.5,0.25-0.94,0.58-1.31,0.99c-0.37,0.42-0.67,0.9-0.9,1.46c-0.22,0.56-0.33,1.15-0.33,1.79
		c0,0.64,0.11,1.24,0.33,1.8c0.22,0.56,0.52,1.05,0.9,1.46c0.38,0.42,0.82,0.75,1.33,1C392.88,260.01,393.45,260.13,394.07,260.13z"
		/>
	<path class="st0" d="M420.47,250.44v10.6c0,0.3,0.08,0.51,0.23,0.65c0.15,0.14,0.39,0.21,0.71,0.21h2.06v3.31h-2.85
		c-0.62,0-1.16-0.06-1.61-0.19c-0.45-0.13-0.83-0.33-1.13-0.61c-0.3-0.28-0.52-0.64-0.67-1.09c-0.15-0.45-0.23-0.98-0.23-1.61v-11.26
		h-1.94v-3.35h1.94v-4.31h4.43v4.31h2.89v3.35H420.47z"/>
	<path class="st0" d="M444.79,252.79c0-0.45-0.1-0.88-0.31-1.28c-0.21-0.4-0.48-0.76-0.83-1.05c-0.35-0.3-0.75-0.53-1.2-0.71
		c-0.45-0.18-0.93-0.27-1.42-0.27c-0.83,0-1.55,0.23-2.16,0.69c-0.61,0.46-1.02,1.04-1.23,1.73h-4.39c0.13-1,0.42-1.89,0.88-2.68
		c0.46-0.79,1.04-1.46,1.76-2.02c0.72-0.56,1.54-0.99,2.47-1.28c0.93-0.29,1.93-0.44,3-0.44c0.92,0,1.8,0.13,2.64,0.4
		c0.84,0.27,1.6,0.66,2.27,1.17c0.67,0.51,1.21,1.16,1.61,1.92c0.4,0.77,0.61,1.66,0.61,2.68v9.87c0,0.85,0.04,1.55,0.13,2.1
		c0.08,0.55,0.24,1.08,0.46,1.59h-4.64c-0.13-0.3-0.22-0.61-0.27-0.94c-0.05-0.33-0.09-0.66-0.1-1.01c-0.68,0.72-1.49,1.29-2.43,1.71
		c-0.94,0.42-1.96,0.63-3.06,0.63c-0.78,0-1.52-0.12-2.2-0.35c-0.68-0.23-1.28-0.57-1.8-1.01c-0.52-0.44-0.93-0.98-1.23-1.61
		c-0.3-0.63-0.44-1.35-0.44-2.16c0-0.89,0.16-1.64,0.48-2.27c0.32-0.63,0.74-1.14,1.26-1.54c0.52-0.4,1.11-0.72,1.76-0.96
		c0.65-0.24,1.31-0.44,1.98-0.58c0.67-0.15,1.33-0.26,1.98-0.35c0.65-0.09,1.23-0.19,1.76-0.31c0.53-0.12,0.95-0.29,1.28-0.52
		c0.33-0.23,0.47-0.56,0.44-1v-0.25H444.79z M440.92,256.96c-0.21,0.12-0.47,0.22-0.77,0.29c-0.3,0.07-0.61,0.13-0.94,0.19
		c-0.33,0.06-0.64,0.12-0.94,0.19c-0.3,0.07-0.56,0.16-0.77,0.29c-0.45,0.21-0.8,0.49-1.03,0.82c-0.23,0.33-0.35,0.73-0.35,1.19
		c0,0.34,0.07,0.66,0.21,0.96c0.14,0.3,0.33,0.56,0.58,0.77c0.25,0.21,0.54,0.38,0.88,0.5c0.34,0.12,0.71,0.19,1.11,0.19
		c0.81,0,1.48-0.15,2.02-0.44c0.54-0.29,0.96-0.66,1.26-1.09c0.3-0.43,0.5-0.88,0.61-1.35c0.11-0.47,0.17-0.88,0.17-1.23v-2.18
		C441.77,256.47,441.41,256.71,440.92,256.96z"/>
	<path class="st0" d="M461.48,260.61v-10.52c0-1.03-0.23-1.79-0.69-2.29c-0.46-0.5-1.05-0.75-1.78-0.75c-0.83,0-1.49,0.27-1.99,0.82
		c-0.5,0.55-0.75,1.32-0.75,2.39v10.35h-4.43v-15.01h4.22v1.53c0.45-0.53,0.99-0.98,1.63-1.33c0.64-0.35,1.37-0.52,2.2-0.52
		c0.91,0,1.7,0.14,2.39,0.42c0.69,0.28,1.27,0.67,1.73,1.17c0.46,0.5,0.81,1.09,1.05,1.78c0.23,0.69,0.35,1.44,0.35,2.25v9.7
		L461.48,260.61L461.48,260.61z"/>
	<path class="st0" d="M484.52,241.24v23.97h-4.22v-1.47c-0.43,0.51-0.99,0.94-1.69,1.31c-0.7,0.37-1.49,0.56-2.37,0.56
		c-0.92,0-1.81-0.21-2.66-0.61c-0.85-0.41-1.59-0.98-2.22-1.71c-0.63-0.73-1.13-1.59-1.5-2.58c-0.37-0.99-0.56-2.07-0.56-3.23
		c0-1.11,0.18-2.16,0.54-3.15c0.36-0.99,0.87-1.85,1.52-2.58c0.65-0.73,1.41-1.3,2.29-1.71c0.88-0.41,1.84-0.61,2.87-0.61
		c0.66,0,1.29,0.14,1.88,0.42c0.59,0.28,1.12,0.64,1.59,1.11v-10.73h4.52V241.24z M476.74,260.13c0.55,0,1.07-0.11,1.57-0.33
		c0.5-0.22,0.94-0.52,1.31-0.9c0.37-0.38,0.66-0.83,0.88-1.35c0.22-0.52,0.33-1.07,0.33-1.67c0-0.66-0.11-1.26-0.33-1.82
		c-0.22-0.56-0.52-1.05-0.9-1.47c-0.38-0.42-0.83-0.76-1.33-1c-0.5-0.25-1.05-0.37-1.64-0.37c-0.57,0-1.11,0.12-1.61,0.37
		c-0.5,0.25-0.94,0.58-1.31,0.99c-0.37,0.42-0.67,0.9-0.9,1.46c-0.22,0.56-0.33,1.15-0.33,1.79c0,0.64,0.11,1.24,0.33,1.8
		c0.22,0.56,0.52,1.05,0.9,1.46c0.38,0.42,0.82,0.75,1.33,1C475.55,260.01,476.12,260.13,476.74,260.13z"/>
	<path class="st0" d="M507.02,251.27c-0.15-0.16-0.36-0.32-0.63-0.46c-0.27-0.15-0.57-0.22-0.88-0.22c-0.62,0-1.18,0.16-1.67,0.48
		c-0.49,0.32-0.91,0.74-1.26,1.25c-0.35,0.51-0.62,1.08-0.81,1.71c-0.19,0.64-0.29,1.28-0.29,1.92v5.3h-4.43v-14.9h4.22v2.49
		c0.38-0.78,0.94-1.45,1.65-1.97c0.71-0.53,1.52-0.79,2.43-0.79c0.4,0,0.78,0.06,1.11,0.17c0.33,0.12,0.6,0.27,0.83,0.44
		L507.02,251.27z"/>
	<path class="st0" d="M522.41,258.75h-13.46c0.09,0.49,0.27,0.94,0.54,1.35c0.27,0.41,0.6,0.76,0.99,1.05
		c0.39,0.29,0.81,0.52,1.28,0.69c0.47,0.17,0.96,0.25,1.47,0.25c0.83,0,1.54-0.21,2.14-0.63c0.6-0.42,1.03-0.94,1.28-1.57h5.35
		c-0.47,1.43-1.13,2.59-1.99,3.46c-0.86,0.87-1.83,1.56-2.91,2.06c-1.08,0.5-2.22,0.83-3.42,1.01c-1.2,0.18-2.37,0.27-3.52,0.27
		c-1.26,0-2.47-0.21-3.62-0.63c-1.15-0.42-2.16-1.02-3.02-1.8c-0.86-0.78-1.55-1.74-2.06-2.87c-0.51-1.13-0.77-2.42-0.77-3.87
		c0-1.32,0.24-2.53,0.71-3.62c0.47-1.09,1.11-2.03,1.92-2.82c0.81-0.79,1.75-1.4,2.82-1.84c1.07-0.44,2.21-0.67,3.42-0.67
		c1.37,0,2.61,0.26,3.71,0.77c1.1,0.51,2.03,1.21,2.79,2.08c0.76,0.87,1.34,1.87,1.73,3.02c0.39,1.15,0.56,2.37,0.5,3.67V258.75z
		 M518.06,255.67c-0.09-1.01-0.49-1.81-1.19-2.41c-0.7-0.6-1.54-0.9-2.52-0.9c-0.51,0-0.98,0.09-1.42,0.27
		c-0.44,0.18-0.82,0.43-1.15,0.75c-0.33,0.32-0.59,0.7-0.79,1.13c-0.2,0.43-0.32,0.89-0.35,1.38h7.41V255.67z"/>
	<path class="st0" d="M541.08,265.21h-4.43v-1.47c-0.43,0.51-0.99,0.94-1.69,1.31c-0.7,0.37-1.49,0.56-2.37,0.56
		c-0.92,0-1.81-0.21-2.66-0.61c-0.85-0.41-1.59-0.98-2.22-1.71c-0.63-0.73-1.13-1.59-1.5-2.58c-0.37-0.99-0.56-2.07-0.56-3.23
		c0-1.11,0.18-2.16,0.54-3.15c0.36-0.99,0.87-1.85,1.52-2.58c0.65-0.73,1.41-1.3,2.29-1.71c0.88-0.41,1.84-0.61,2.87-0.61
		c0.66,0,1.29,0.14,1.88,0.42c0.59,0.28,1.12,0.64,1.59,1.11v-9.72h4.43v17.08v6.88H541.08z M533.3,260.13
		c0.55,0,1.07-0.11,1.57-0.33c0.5-0.22,0.94-0.52,1.31-0.9c0.37-0.38,0.66-0.83,0.88-1.35c0.22-0.52,0.33-1.07,0.33-1.67
		c0-0.66-0.11-1.26-0.33-1.82c-0.22-0.56-0.52-1.05-0.9-1.47c-0.38-0.42-0.83-0.76-1.33-1c-0.5-0.25-1.05-0.37-1.64-0.37
		c-0.57,0-1.11,0.12-1.61,0.37c-0.5,0.25-0.94,0.58-1.31,0.99c-0.37,0.42-0.67,0.9-0.9,1.46c-0.22,0.56-0.33,1.15-0.33,1.79
		c0,0.64,0.11,1.24,0.33,1.8c0.22,0.56,0.52,1.05,0.9,1.46c0.38,0.42,0.82,0.75,1.33,1C532.11,260.01,532.68,260.13,533.3,260.13z"/>
	<path class="st0" d="M560.24,251.27c-0.15-0.16-0.36-0.32-0.63-0.46c-0.27-0.15-0.57-0.22-0.88-0.22c-0.62,0-1.18,0.16-1.67,0.48
		c-0.49,0.32-0.91,0.74-1.26,1.25c-0.35,0.51-0.62,1.08-0.81,1.71c-0.19,0.64-0.29,1.28-0.29,1.92v5.3h-4.43v-14.9h4.22v2.49
		c0.38-0.78,0.94-1.45,1.65-1.97c0.71-0.53,1.52-0.79,2.43-0.79c0.4,0,0.78,0.06,1.11,0.17c0.33,0.12,0.6,0.27,0.83,0.44
		L560.24,251.27z"/>
	<path class="st0" d="M574.74,252.79c0-0.45-0.1-0.88-0.31-1.28c-0.21-0.4-0.48-0.76-0.83-1.05c-0.35-0.3-0.75-0.53-1.2-0.71
		c-0.45-0.18-0.93-0.27-1.42-0.27c-0.83,0-1.55,0.23-2.16,0.69c-0.61,0.46-1.02,1.04-1.23,1.73h-4.39c0.13-1,0.42-1.89,0.88-2.68
		c0.46-0.79,1.04-1.46,1.76-2.02c0.72-0.56,1.54-0.99,2.47-1.28c0.93-0.29,1.93-0.44,3-0.44c0.92,0,1.8,0.13,2.64,0.4
		c0.84,0.27,1.6,0.66,2.27,1.17c0.67,0.51,1.21,1.16,1.61,1.92c0.4,0.77,0.61,1.66,0.61,2.68v9.87c0,0.85,0.04,1.55,0.13,2.1
		c0.08,0.55,0.24,1.08,0.46,1.59h-4.64c-0.13-0.3-0.22-0.61-0.27-0.94c-0.05-0.33-0.09-0.66-0.1-1.01c-0.68,0.72-1.49,1.29-2.43,1.71
		c-0.94,0.42-1.96,0.63-3.06,0.63c-0.78,0-1.52-0.12-2.2-0.35c-0.68-0.23-1.28-0.57-1.8-1.01c-0.52-0.44-0.93-0.98-1.23-1.61
		c-0.3-0.63-0.44-1.35-0.44-2.16c0-0.89,0.16-1.64,0.48-2.27c0.32-0.63,0.74-1.14,1.26-1.54c0.52-0.4,1.11-0.72,1.76-0.96
		c0.65-0.24,1.31-0.44,1.98-0.58c0.67-0.15,1.33-0.26,1.98-0.35c0.65-0.09,1.23-0.19,1.76-0.31c0.53-0.12,0.95-0.29,1.28-0.52
		c0.33-0.23,0.47-0.56,0.44-1v-0.25H574.74z M570.87,256.96c-0.21,0.12-0.47,0.22-0.77,0.29c-0.3,0.07-0.61,0.13-0.94,0.19
		c-0.33,0.06-0.64,0.12-0.94,0.19c-0.3,0.07-0.56,0.16-0.77,0.29c-0.45,0.21-0.8,0.49-1.03,0.82c-0.23,0.33-0.35,0.73-0.35,1.19
		c0,0.34,0.07,0.66,0.21,0.96c0.14,0.3,0.33,0.56,0.58,0.77c0.25,0.21,0.54,0.38,0.88,0.5c0.34,0.12,0.71,0.19,1.11,0.19
		c0.81,0,1.48-0.15,2.02-0.44c0.54-0.29,0.96-0.66,1.26-1.09c0.3-0.43,0.5-0.88,0.61-1.35c0.11-0.47,0.17-0.88,0.17-1.23v-2.18
		C571.72,256.47,571.36,256.71,570.87,256.96z"/>
	<path class="st0" d="M601.93,245.6h4.64v15.94c0,1.51-0.24,2.87-0.71,4.06c-0.47,1.19-1.13,2.2-1.97,3.02
		c-0.84,0.82-1.84,1.45-3.02,1.88c-1.18,0.43-2.48,0.65-3.92,0.65c-1.45,0-2.76-0.22-3.94-0.65c-1.18-0.43-2.19-1.06-3.02-1.88
		c-0.83-0.82-1.48-1.83-1.94-3.02c-0.46-1.19-0.69-2.54-0.69-4.06V245.6h4.43v15.86c0,0.66,0.09,1.28,0.27,1.86
		c0.18,0.58,0.45,1.09,0.81,1.52c0.36,0.43,0.8,0.77,1.34,1.03c0.54,0.25,1.17,0.38,1.9,0.38c0.74,0,1.38-0.13,1.92-0.38
		c0.54-0.25,0.99-0.6,1.35-1.03c0.36-0.43,0.63-0.94,0.81-1.52c0.18-0.58,0.27-1.2,0.27-1.86v-15.86H601.93z"/>
	<path class="st0" d="M615.3,250.44v10.6c0,0.3,0.08,0.51,0.23,0.65c0.15,0.14,0.39,0.21,0.71,0.21h2.06v3.31h-2.85
		c-0.62,0-1.16-0.06-1.61-0.19c-0.45-0.13-0.83-0.33-1.13-0.61c-0.3-0.28-0.52-0.64-0.67-1.09c-0.15-0.45-0.23-0.98-0.23-1.61v-11.26
		h-1.94v-3.35h1.94v-4.31h4.43v4.31h2.89v3.35H615.3z"/>
	<path class="st0" d="M637.73,254.67c0,1.17-0.2,2.24-0.61,3.23c-0.4,0.99-0.96,1.85-1.67,2.58c-0.71,0.73-1.54,1.3-2.5,1.71
		c-0.96,0.41-1.99,0.61-3.1,0.61c-1.11,0-2.14-0.2-3.1-0.61c-0.96-0.41-1.79-0.98-2.5-1.71c-0.71-0.73-1.27-1.59-1.67-2.58
		c-0.4-0.99-0.61-2.07-0.61-3.23c0-1.17,0.2-2.24,0.61-3.23c0.4-0.99,0.96-1.85,1.67-2.58c0.71-0.73,1.54-1.3,2.5-1.71
		c0.96-0.41,1.99-0.61,3.1-0.61c1.11,0,2.14,0.2,3.1,0.61c0.96,0.41,1.79,0.98,2.5,1.71c0.71,0.73,1.27,1.59,1.67,2.58
		C637.52,252.44,637.73,253.51,637.73,254.67z M633.27,254.67c0-0.62-0.1-1.2-0.31-1.73c-0.21-0.53-0.49-0.99-0.85-1.38
		c-0.36-0.39-0.78-0.7-1.26-0.92c-0.48-0.22-0.99-0.33-1.54-0.33c-0.55,0-1.06,0.11-1.54,0.33c-0.48,0.22-0.9,0.52-1.26,0.92
		c-0.36,0.39-0.64,0.85-0.85,1.38c-0.21,0.53-0.31,1.11-0.31,1.73c0,0.6,0.1,1.17,0.31,1.69c0.21,0.52,0.49,0.98,0.85,1.37
		c0.36,0.39,0.78,0.69,1.26,0.92c0.48,0.22,0.99,0.33,1.54,0.33c0.55,0,1.06-0.11,1.54-0.33c0.48-0.22,0.9-0.52,1.26-0.92
		c0.36-0.39,0.64-0.85,0.85-1.37C633.17,255.84,633.27,255.27,633.27,254.67z"/>
	<path class="st0" d="M641.19,251.27c-0.15-0.16-0.36-0.32-0.63-0.46c-0.27-0.15-0.57-0.22-0.88-0.22c-0.62,0-1.18,0.16-1.67,0.48
		c-0.49,0.32-0.91,0.74-1.26,1.25c-0.35,0.51-0.62,1.08-0.81,1.71c-0.19,0.64-0.29,1.28-0.29,1.92v5.3h-4.43v-14.9h4.22v2.49
		c0.38-0.78,0.94-1.45,1.65-1.97c0.71-0.53,1.52-0.79,2.43-0.79c0.4,0,0.78,0.06,1.11,0.17c0.33,0.12,0.6,0.27,0.83,0.44
		L641.19,251.27z"/>
	<path class="st0" d="M656.25,251.5c-0.21-0.47-0.56-0.85-1.05-1.15c-0.49-0.3-1.05-0.44-1.69-0.44c-0.42,0-0.85,0.07-1.28,0.21
		c-0.43,0.14-0.82,0.33-1.17,0.58c-0.35,0.25-0.63,0.54-0.85,0.88c-0.22,0.34-0.33,0.71-0.33,1.11c0,0.68,0.24,1.26,0.71,1.73
		c0.47,0.47,1.06,0.86,1.76,1.17c0.71,0.31,1.48,0.59,2.31,0.83c0.83,0.24,1.59,0.53,2.31,0.85c0.71,0.32,1.3,0.73,1.76,1.23
		c0.47,0.5,0.71,1.15,0.71,1.96c0,0.94-0.19,1.78-0.58,2.51c-0.39,0.73-0.9,1.34-1.54,1.84c-0.64,0.5-1.37,0.87-2.18,1.13
		c-0.81,0.26-1.64,0.38-2.49,0.38c-2.68,0-4.82-0.9-6.42-2.7l3.19-2.53c0.28,0.53,0.74,1,1.38,1.41c0.64,0.4,1.33,0.61,2.08,0.61
		c1.01,0,1.85-0.23,2.52-0.67c0.67-0.45,1.01-1.08,1.01-1.9c0-0.7-0.24-1.29-0.71-1.76c-0.47-0.47-1.06-0.87-1.76-1.19
		c-0.71-0.32-1.48-0.6-2.31-0.85c-0.83-0.25-1.59-0.54-2.31-0.88c-0.71-0.34-1.3-0.77-1.76-1.3c-0.47-0.53-0.71-1.22-0.71-2.08
		c0-0.93,0.19-1.74,0.56-2.43c0.37-0.69,0.87-1.27,1.5-1.73c0.63-0.46,1.32-0.81,2.08-1.05c0.76-0.24,1.54-0.35,2.33-0.35
		c1.15,0,2.19,0.19,3.13,0.56c0.94,0.37,1.79,0.97,2.54,1.8L656.25,251.5z"/>
</g>
</svg>
